<?xml version="1.0" encoding="UTF-8" standalone="no"?>
<svg
   xmlns:dc="http://purl.org/dc/elements/1.1/"
   xmlns:cc="http://creativecommons.org/ns#"
   xmlns:rdf="http://www.w3.org/1999/02/22-rdf-syntax-ns#"
   xmlns:svg="http://www.w3.org/2000/svg"
   xmlns="http://www.w3.org/2000/svg"
   xmlns:sodipodi="http://sodipodi.sourceforge.net/DTD/sodipodi-0.dtd"
   xmlns:inkscape="http://www.inkscape.org/namespaces/inkscape"
   version="1.1"
   id="Capa_1"
   x="0px"
   y="0px"
   viewBox="0 0 418.44 418.44"
   style="enable-background:new 0 0 418.44 418.44;"
   xml:space="preserve"
   sodipodi:docname="pendrive.svg"
   inkscape:version="1.0.2 (e86c870879, 2021-01-15)"
   inkscape:export-filename="/home/jean/Downloads/mookey.png"
   inkscape:export-xdpi="96"
   inkscape:export-ydpi="96"><metadata
   id="metadata51"><rdf:RDF><cc:Work
       rdf:about=""><dc:format>image/svg+xml</dc:format><dc:type
         rdf:resource="http://purl.org/dc/dcmitype/StillImage" /></cc:Work></rdf:RDF></metadata><defs
   id="defs49">
		
	
	

			
			
			
			
		
	

		
	</defs><sodipodi:namedview
   pagecolor="#ffffff"
   bordercolor="#666666"
   borderopacity="1"
   objecttolerance="10"
   gridtolerance="10"
   guidetolerance="10"
   inkscape:pageopacity="0"
   inkscape:pageshadow="2"
   inkscape:window-width="1916"
   inkscape:window-height="1036"
   id="namedview47"
   showgrid="false"
   inkscape:zoom="1.4095843"
   inkscape:cx="48.840325"
   inkscape:cy="231.14511"
   inkscape:window-x="0"
   inkscape:window-y="20"
   inkscape:window-maximized="0"
   inkscape:current-layer="Capa_1" />
<path
   id="path2"
   d="M 183.36133 41.539062 C 173.12458 41.539062 162.88862 45.443406 155.07812 53.253906 L 143.76562 64.605469 L 64.566406 143.80664 L 53.253906 155.11719 C 37.632906 170.73819 37.632906 196.06455 53.253906 211.68555 L 234.26953 392.66211 C 268.63453 427.03011 324.3527 427.03297 358.7207 392.66797 L 358.72656 392.66211 L 392.66211 358.72656 C 427.03011 324.36256 427.03197 268.64339 392.66797 234.27539 L 392.66211 234.26953 L 211.64648 53.253906 C 203.83598 45.443406 193.59808 41.539062 183.36133 41.539062 z M 183.35938 57.574219 C 189.5015 57.573594 195.64358 59.917516 200.33008 64.603516 L 200.33398 64.605469 L 381.34961 245.58203 C 409.46961 273.69803 409.47438 319.28625 381.35938 347.40625 L 381.34961 347.41406 L 347.41406 381.35156 C 319.29906 409.47156 273.7118 409.47438 245.5918 381.35938 L 245.58203 381.35156 L 64.566406 200.33398 C 55.193406 190.96198 55.1905 175.76558 64.5625 166.39258 L 64.566406 166.39062 L 166.39062 64.605469 C 171.07663 59.918969 177.21725 57.574844 183.35938 57.574219 z " /><path
   d="m 336.378,279.25 c -0.093,0.091 -0.185,0.183 -0.276,0.276 l -56.568,56.568 c -9.297,9.447 -9.175,24.643 0.272,33.94 9.339,9.19 24.323,9.192 33.664,0.004 l 56.568,-56.568 c 9.45,-9.295 9.575,-24.49 0.28,-33.94 -9.295,-9.449 -24.49,-9.575 -33.94,-0.28 z m 22.348,22.908 -56.568,56.568 c -3.126,3.124 -8.192,3.122 -11.316,-0.004 -3.124,-3.126 -3.122,-8.192 0.004,-11.316 l 56.568,-56.568 c 3.126,-3.124 8.192,-3.122 11.316,0.004 3.124,3.126 3.122,8.193 -0.004,11.316 z"
   id="path4" />
<g
   id="g16">
</g>
<g
   id="g18">
</g>
<g
   id="g20">
</g>
<g
   id="g22">
</g>
<g
   id="g24">
</g>
<g
   id="g26">
</g>
<g
   id="g28">
</g>
<g
   id="g30">
</g>
<g
   id="g32">
</g>
<g
   id="g34">
</g>
<g
   id="g36">
</g>
<g
   id="g38">
</g>
<g
   id="g40">
</g>
<g
   id="g42">
</g>
<g
   id="g44">
</g>
<path
   id="path154"
   style="stroke-width:0.608348;fill:#010000;fill-opacity:1;stroke:#000000;stroke-opacity:1"
   d="m 35.23012,-15.579248 -56.321654,0.374773 c -4.332402,0.0289 -7.819117,3.411156 -7.788926,7.5549351 l 0.322545,44.3926389 c 0.01443,1.987705 0.853039,3.888458 2.331902,5.285708 l 15.726005,14.856201 c 1.4819953,1.400206 3.4844035,2.177982 5.5669374,2.164101 L 14.27406,58.921137 14.407851,77.266865 c 0.03022,4.143778 3.566438,7.478688 7.898852,7.449809 l 7.68858,-0.05028 0.05257,7.35383 c 0.03021,4.143193 3.566437,7.478693 7.898839,7.449813 l 16.880011,-0.11197 0.117069,16.145063 c 0.01456,1.9895 0.855339,3.89245 2.336686,5.29028 L 82.410528,144.49569 93.424941,133.8123 70.610045,112.2924 70.459531,91.752858 c -0.03022,-4.143775 -3.566442,-7.48097 -7.898844,-7.452091 l -16.877626,0.114265 -0.05495,-7.35383 c -0.03022,-4.143184 -3.566438,-7.480973 -7.89884,-7.452095 l -7.688592,0.05256 -0.133791,-18.348013 c -0.03022,-4.143185 -3.566438,-7.478689 -7.89884,-7.449811 L -1.7888285,44.021522 -12.891643,33.534657 -13.137733,-0.25000136 -2.0516407,-0.32312836 94.495311,90.742799 c 2.77666,2.619002 7.247049,2.587201 9.984659,-0.06855 2.73759,-2.655758 2.70802,-6.92914 -0.0692,-9.549925 L 17.915265,-0.45796046 32.088263,-0.55165416 133.42328,95.020721 144.44008,84.335043 40.792274,-13.419721 c -1.48197,-1.397228 -3.482103,-2.173392 -5.562154,-2.159527 z" /><g
   id="g166"
   transform="matrix(0.00354372,0.50848476,-0.50848476,0.00354372,-48.661009,-93.328854)">
</g><g
   id="g168"
   transform="matrix(0.00354372,0.50848476,-0.50848476,0.00354372,-48.661009,-93.328854)">
</g><g
   id="g170"
   transform="matrix(0.00354372,0.50848476,-0.50848476,0.00354372,-48.661009,-93.328854)">
</g><g
   id="g172"
   transform="matrix(0.00354372,0.50848476,-0.50848476,0.00354372,-48.661009,-93.328854)">
</g><g
   id="g174"
   transform="matrix(0.00354372,0.50848476,-0.50848476,0.00354372,-48.661009,-93.328854)">
</g><g
   id="g176"
   transform="matrix(0.00354372,0.50848476,-0.50848476,0.00354372,-48.661009,-93.328854)">
</g><g
   id="g178"
   transform="matrix(0.00354372,0.50848476,-0.50848476,0.00354372,-48.661009,-93.328854)">
</g><g
   id="g180"
   transform="matrix(0.00354372,0.50848476,-0.50848476,0.00354372,-48.661009,-93.328854)">
</g><g
   id="g182"
   transform="matrix(0.00354372,0.50848476,-0.50848476,0.00354372,-48.661009,-93.328854)">
</g><g
   id="g184"
   transform="matrix(0.00354372,0.50848476,-0.50848476,0.00354372,-48.661009,-93.328854)">
</g><g
   id="g186"
   transform="matrix(0.00354372,0.50848476,-0.50848476,0.00354372,-48.661009,-93.328854)">
</g><g
   id="g188"
   transform="matrix(0.00354372,0.50848476,-0.50848476,0.00354372,-48.661009,-93.328854)">
</g><g
   id="g190"
   transform="matrix(0.00354372,0.50848476,-0.50848476,0.00354372,-48.661009,-93.328854)">
</g><g
   id="g192"
   transform="matrix(0.00354372,0.50848476,-0.50848476,0.00354372,-48.661009,-93.328854)">
</g><g
   id="g194"
   transform="matrix(0.00354372,0.50848476,-0.50848476,0.00354372,-48.661009,-93.328854)">
</g><g
   id="g1328"
   transform="matrix(0.87719546,0,0,0.87719546,-21.105841,-27.514375)"><path
     d="m 109.269,145.357 h 157.244 c 4.142,0 7.5,-3.358 7.5,-7.5 0,-4.142 -3.358,-7.5 -7.5,-7.5 H 109.269 c -4.142,0 -7.5,3.358 -7.5,7.5 0,4.142 3.358,7.5 7.5,7.5 z"
     id="path1292" /><path
     d="m 7.5,376.949 c 4.142,0 7.5,-3.358 7.5,-7.5 V 210.804 h 226.367 c 4.142,0 7.5,-3.358 7.5,-7.5 0,-4.142 -3.358,-7.5 -7.5,-7.5 H 15 v -13.233 c 0,-20.52 16.694,-37.214 37.214,-37.214 h 25.093 c 4.142,0 7.5,-3.358 7.5,-7.5 0,-4.142 -3.358,-7.5 -7.5,-7.5 H 52.214 C 23.423,130.357 0,153.78 0,182.571 v 186.878 c 0,4.143 3.358,7.5 7.5,7.5 z"
     id="path1294" /><path
     d="m 482.479,307.366 c -4.142,0 -7.5,3.358 -7.5,7.5 V 436.48 c 0,20.52 -16.694,37.213 -37.213,37.213 H 52.214 C 31.694,473.694 15,457 15,436.48 v -35.068 c 0,-4.142 -3.358,-7.5 -7.5,-7.5 -4.142,0 -7.5,3.358 -7.5,7.5 v 35.068 c 0,28.791 23.423,52.213 52.214,52.213 h 385.551 c 28.791,0 52.213,-23.423 52.213,-52.213 V 314.866 c 10e-4,-4.142 -3.357,-7.5 -7.499,-7.5 z"
     id="path1296" /><path
     d="m 272.094,207.167 c 0.514,31.154 13.043,60.523 35.278,82.699 22.234,22.174 51.638,34.625 82.794,35.058 0.574,0.008 1.144,0.012 1.717,0.012 31.691,-10e-4 61.499,-12.212 84.094,-34.496 23.008,-22.691 35.68,-52.982 35.68,-85.294 0,-13.705 -2.306,-27.162 -6.853,-39.998 -1.383,-3.904 -5.671,-5.949 -9.574,-4.565 -3.904,1.383 -5.948,5.669 -4.565,9.574 3.976,11.223 5.991,22.995 5.991,34.989 0,28.266 -11.085,54.764 -31.212,74.614 -20.124,19.845 -46.76,30.584 -75.071,30.165 -27.235,-0.378 -52.951,-11.274 -72.41,-30.68 -19.459,-19.406 -30.423,-45.092 -30.873,-72.326 -0.5,-30.239 12.08,-59.219 34.511,-79.507 0.585,-0.529 1.355,-0.82 2.17,-0.82 h 136.188 c 0.815,0 1.587,0.292 2.173,0.822 5.327,4.818 10.176,10.203 14.415,16.005 2.443,3.345 7.136,4.077 10.48,1.632 3.345,-2.443 4.076,-7.135 1.632,-10.48 -4.841,-6.628 -10.381,-12.779 -16.465,-18.282 -3.35,-3.029 -7.695,-4.698 -12.235,-4.698 h -2.556 v -23.09 c 0,-36.137 -29.4,-65.537 -65.538,-65.537 -36.138,0 -65.538,29.4 -65.538,65.537 v 23.09 h -2.557 c -4.54,0 -8.884,1.667 -12.232,4.695 -25.637,23.192 -40.015,56.316 -39.444,90.881 z M 412.405,111.592 H 371.33 v -23.09 c 0,-11.324 9.213,-20.537 20.538,-20.537 11.325,0 20.538,9.213 20.538,20.537 v 23.09 z M 341.33,88.501 c 0,-27.866 22.671,-50.537 50.538,-50.537 27.867,0 50.538,22.671 50.538,50.537 v 23.09 h -15 v -23.09 c 0,-19.595 -15.942,-35.537 -35.538,-35.537 -19.596,0 -35.538,15.942 -35.538,35.537 v 23.09 h -15 z"
     id="path1298" /><path
     d="m 47.865,166.574 c -4.142,0 -7.5,3.358 -7.5,7.5 0,4.142 3.358,7.5 7.5,7.5 h 6.265 c 4.142,0 7.5,-3.358 7.5,-7.5 0,-4.142 -3.358,-7.5 -7.5,-7.5 z"
     id="path1300" /><path
     d="m 79.523,174.074 c 0,4.142 3.358,7.5 7.5,7.5 h 6.265 c 4.142,0 7.5,-3.358 7.5,-7.5 0,-4.142 -3.358,-7.5 -7.5,-7.5 h -6.265 c -4.142,0 -7.5,3.358 -7.5,7.5 z"
     id="path1302" /><path
     d="m 126.182,166.574 c -4.142,0 -7.5,3.358 -7.5,7.5 0,4.142 3.358,7.5 7.5,7.5 h 6.265 c 4.142,0 7.5,-3.358 7.5,-7.5 0,-4.142 -3.358,-7.5 -7.5,-7.5 z"
     id="path1304" /><path
     d="m 165.34,166.574 c -4.142,0 -7.5,3.358 -7.5,7.5 0,4.142 3.358,7.5 7.5,7.5 h 76.027 c 4.142,0 7.5,-3.358 7.5,-7.5 0,-4.142 -3.358,-7.5 -7.5,-7.5 z"
     id="path1306" /><path
     d="m 362.222,249.027 c 2.942,4.018 7.486,6.322 12.466,6.322 h 34.358 c 4.98,0 9.524,-2.304 12.466,-6.322 2.942,-4.018 3.768,-9.045 2.265,-13.793 l -6.662,-21.039 c 5.074,-6.287 7.603,-14.192 7.126,-22.302 -0.959,-16.33 -13.994,-29.409 -30.319,-30.421 -9.059,-0.563 -17.673,2.538 -24.262,8.731 -6.498,6.107 -10.224,14.721 -10.224,23.635 0,7.397 2.549,14.613 7.184,20.356 l -6.663,21.04 c -1.502,4.748 -0.677,9.775 2.265,13.793 z m 12.036,-9.266 6.796,-21.461 c 1.456,-4.6 0.465,-9.606 -2.652,-13.393 -2.594,-3.149 -3.966,-6.978 -3.966,-11.069 0,-4.861 1.952,-9.374 5.497,-12.705 3.267,-3.07 7.468,-4.726 11.932,-4.726 0.375,0 0.751,0.012 1.129,0.035 8.619,0.535 15.767,7.708 16.273,16.33 0.261,4.435 -1.14,8.749 -3.944,12.147 -3.113,3.773 -4.101,8.774 -2.642,13.379 l 6.796,21.462 c 0.024,0.077 0.069,0.219 -0.066,0.404 -0.135,0.185 -0.284,0.185 -0.364,0.185 h -34.358 c -0.08,0 -0.229,0 -0.364,-0.185 -0.136,-0.184 -0.091,-0.326 -0.067,-0.403 z"
     id="path1308" /><path
     d="m 76.045,266.713 c 0,-4.142 -3.358,-7.5 -7.5,-7.5 -4.142,0 -7.5,3.358 -7.5,7.5 v 42.054 c 0,4.142 3.358,7.5 7.5,7.5 4.142,0 7.5,-3.358 7.5,-7.5 z"
     id="path1310" /><path
     d="m 207.362,266.713 c 0,-4.142 -3.358,-7.5 -7.5,-7.5 -4.142,0 -7.5,3.358 -7.5,7.5 v 42.054 c 0,4.142 3.358,7.5 7.5,7.5 4.142,0 7.5,-3.358 7.5,-7.5 z"
     id="path1312" /><path
     d="m 157.902,282.912 c 0,-13.067 -10.631,-23.699 -23.699,-23.699 -13.068,0 -23.699,10.631 -23.699,23.699 v 9.657 c 0,13.067 10.631,23.699 23.699,23.699 13.068,0 23.699,-10.631 23.699,-23.699 z m -15,9.657 c 0,4.796 -3.902,8.699 -8.699,8.699 -4.797,0 -8.699,-3.902 -8.699,-8.699 v -9.657 c 0,-4.796 3.902,-8.699 8.699,-8.699 4.797,0 8.699,3.902 8.699,8.699 z"
     id="path1314" /><path
     d="m 68.545,364.677 c -4.142,0 -7.5,3.358 -7.5,7.5 v 42.054 c 0,4.142 3.358,7.5 7.5,7.5 4.142,0 7.5,-3.358 7.5,-7.5 v -42.054 c 0,-4.143 -3.358,-7.5 -7.5,-7.5 z"
     id="path1316" /><path
     d="m 199.862,364.677 c -4.142,0 -7.5,3.358 -7.5,7.5 v 42.054 c 0,4.142 3.358,7.5 7.5,7.5 4.142,0 7.5,-3.358 7.5,-7.5 v -42.054 c 0,-4.143 -3.358,-7.5 -7.5,-7.5 z"
     id="path1318" /><path
     d="m 134.204,364.677 c -13.067,0 -23.699,10.631 -23.699,23.699 v 9.657 c 0,13.067 10.631,23.698 23.699,23.698 13.068,0 23.699,-10.631 23.699,-23.698 v -9.657 c -0.001,-13.068 -10.632,-23.699 -23.699,-23.699 z m 8.698,33.355 c 0,4.796 -3.902,8.698 -8.699,8.698 -4.797,0 -8.699,-3.902 -8.699,-8.698 v -9.657 c 0,-4.796 3.902,-8.699 8.699,-8.699 4.797,0 8.699,3.902 8.699,8.699 z"
     id="path1320" /><path
     d="m 319.347,372.177 v 42.054 c 0,4.142 3.358,7.5 7.5,7.5 4.142,0 7.5,-3.358 7.5,-7.5 v -42.054 c 0,-4.142 -3.358,-7.5 -7.5,-7.5 -4.142,0 -7.5,3.357 -7.5,7.5 z"
     id="path1322" /><path
     d="m 237.489,388.375 v 9.657 c 0,13.067 10.631,23.698 23.699,23.698 13.068,0 23.699,-10.631 23.699,-23.698 v -9.657 c 0,-13.067 -10.631,-23.699 -23.699,-23.699 -13.068,0 -23.699,10.632 -23.699,23.699 z m 32.398,0 v 9.657 c 0,4.796 -3.902,8.698 -8.699,8.698 -4.797,0 -8.699,-3.902 -8.699,-8.698 v -9.657 c 0,-4.796 3.902,-8.699 8.699,-8.699 4.797,0 8.699,3.903 8.699,8.699 z"
     id="path1324" /><path
     d="m 368.807,388.375 v 9.657 c 0,13.067 10.631,23.698 23.699,23.698 13.068,0 23.699,-10.631 23.699,-23.698 v -9.657 c 0,-13.067 -10.631,-23.699 -23.699,-23.699 -13.068,0 -23.699,10.632 -23.699,23.699 z m 32.398,0 v 9.657 c 0,4.796 -3.902,8.698 -8.699,8.698 -4.797,0 -8.699,-3.902 -8.699,-8.698 v -9.657 c 0,-4.796 3.902,-8.699 8.699,-8.699 4.797,0 8.699,3.903 8.699,8.699 z"
     id="path1326" /></g><path
   style="fill:#fff7bd;fill-opacity:1;stroke:#000000;stroke-width:0.786443;stroke-miterlimit:4;stroke-dasharray:none;stroke-opacity:1"
   d="m 77.457699,118.06751 -6.26243,-5.9185 -0.202567,-11.1182 C 70.791057,89.96341 70.786817,89.905697 70.064685,88.397659 69.66569,87.564432 68.810001,86.429693 68.163158,85.876019 66.047557,84.065145 65.391484,83.967901 55.28958,83.967901 h -9.051925 l -0.11629,-4.422291 c -0.107831,-4.10058 -0.172336,-4.530296 -0.886688,-5.906945 -0.835813,-1.61072 -1.944866,-2.680143 -3.809991,-3.673845 -1.063115,-0.56641 -1.720732,-0.646814 -6.010641,-0.7349 L 30.597127,69.13101 30.456144,59.364878 C 30.32623,50.365471 30.269045,49.494495 29.727736,48.270779 28.986111,46.594214 27.500575,45.099384 25.690562,44.208355 l -1.408841,-0.69354 H 11.343887 -1.5939465 L -6.9514688,38.472041 -12.308991,33.42927 -12.50026,22.982851 C -12.605458,17.237321 -12.691529,9.7492763 -12.691529,6.3427515 V 0.14906993 l 5.3061367,0.0788952 5.3061364,0.0788952 L 46.011869,45.689712 c 26.450118,24.960569 48.600392,45.73201 49.222827,46.15876 3.794346,2.601447 9.388924,0.982856 11.201654,-3.240791 0.63623,-1.482418 0.55002,-4.268108 -0.17537,-5.66639 C 105.47744,81.430906 104.3314,80.322495 74.153921,51.888442 29.580641,9.8902662 19.206962,0.09012999 19.206962,-0.02059596 c 0,-0.05913771 2.842329,-0.10752311 6.316289,-0.10752311 h 6.31629 L 43.291105,10.67387 c 6.298362,5.941093 26.259829,24.770645 44.358814,41.843445 18.098981,17.072799 33.363971,31.453935 33.922201,31.958073 l 1.01495,0.916618 -19.28327,19.297004 c -10.605799,10.61335 -19.35086,19.297 -19.433472,19.297 -0.08261,0 -2.968293,-2.66333 -6.412629,-5.9185 z"
   id="path1358" /><path
   style="fill:#fff2fc;fill-opacity:1;stroke:#000000;stroke-width:2.2806;stroke-miterlimit:4;stroke-dasharray:none;stroke-opacity:1"
   d="m 285.41477,401.12122 c -10.376,-1.74152 -20.14417,-5.69176 -29.56689,-11.95683 -3.21932,-2.1405 -39.07003,-37.32995 -99.04817,-97.22121 C 53.635891,188.92875 58.268833,194.01279 58.242428,183.78983 c -0.02766,-10.70859 -2.335365,-7.97487 56.569522,-67.01278 37.64033,-37.725343 54.64871,-54.213207 57.55828,-55.796795 5.49694,-2.991809 12.36717,-3.615043 18.39943,-1.669107 4.33139,1.397256 8.71649,5.639933 99.41115,96.182482 52.18394,52.0964 96.56233,97.05169 98.61867,99.90063 4.50038,6.23504 8.79009,15.41152 10.94425,23.41172 2.22949,8.28002 2.22949,27.03903 0,35.31905 -2.14695,7.97342 -6.43446,17.15894 -10.92787,23.41172 -2.04732,2.84894 -14.26015,15.59186 -27.13963,28.31759 -19.58855,19.35472 -24.44841,23.71241 -29.7242,26.65278 -14.27269,7.95465 -31.48449,11.14057 -46.53726,8.6141 z m 21.30937,-26.11431 c 2.87042,-1.25661 11.36188,-9.2133 35.16576,-32.95112 18.14929,-18.09892 32.12548,-32.71282 33.14581,-34.6582 1.17704,-2.24415 1.89204,-5.50292 2.14822,-9.79094 0.33221,-5.56052 0.10139,-7.04452 -1.71169,-11.00482 -4.26527,-9.31658 -11.96407,-14.35822 -21.99375,-14.40284 -10.55868,-0.047 -10.64335,0.0177 -45.34537,34.60636 -22.43327,22.36002 -31.55481,32.00989 -33.10053,35.01775 -4.49666,8.75013 -3.21045,19.59382 3.18604,26.8606 7.39991,8.40675 18.24894,10.81332 28.50551,6.32321 z"
   id="path1362" /><g
   id="g1211"
   transform="translate(475.89012,49.291857)"><ellipse
     cx="-302.8013"
     cy="140.57375"
     rx="6.0917583"
     ry="9.0974827"
     id="ellipse1176"
     style="stroke-width:2.21102;stroke-miterlimit:4;stroke-dasharray:none" /><ellipse
     cx="-239.86444"
     cy="140.57375"
     rx="6.0917583"
     ry="9.0974827"
     id="ellipse1178"
     style="stroke-width:2.21102;stroke-miterlimit:4;stroke-dasharray:none" /><path
     d="m -297.14054,197.59642 c 0,8.02785 4.04528,14.3167 9.20915,14.3167 5.16387,0 9.20947,-6.28853 9.20947,-14.3167 0,-8.02817 -4.04528,-14.31638 -9.20947,-14.31638 -5.16419,0 -9.20915,6.28853 -9.20915,14.31638 z m 11.94067,-7.23562 c 1.06643,1.86634 1.67852,4.50378 1.67852,7.23562 0,2.73216 -0.61177,5.36928 -1.67852,7.23594 -0.81623,1.42831 -1.83754,2.28133 -2.73152,2.28133 -0.89397,0 -1.91529,-0.8527 -2.73151,-2.28101 -1.06644,-1.86666 -1.67821,-4.5041 -1.67821,-7.23594 0,-2.73184 0.61177,-5.36928 1.67821,-7.23594 0.81622,-1.42831 1.83754,-2.28101 2.73151,-2.28101 0.89398,0 1.91561,0.8527 2.73152,2.28101 z"
     id="path1180"
     style="stroke-width:2.21102;stroke-miterlimit:4;stroke-dasharray:none" /><path
     d="m -263.94383,197.59642 c 0,8.02785 4.04528,14.3167 9.20947,14.3167 5.16419,0 9.20947,-6.28853 9.20947,-14.3167 0,-8.02817 -4.04528,-14.31638 -9.20947,-14.31638 -5.16419,0 -9.20947,6.28853 -9.20947,14.31638 z m 11.94098,-7.23562 c 1.06644,1.86634 1.67853,4.50378 1.67853,7.23562 0,2.73216 -0.61177,5.36928 -1.67853,7.23594 -0.81622,1.42831 -1.83754,2.28133 -2.73151,2.28133 -0.89398,0 -1.91529,-0.85302 -2.73152,-2.28133 -1.06643,-1.86634 -1.67852,-4.50378 -1.67852,-7.23594 0,-2.73184 0.61177,-5.36928 1.67852,-7.23562 0.81623,-1.42831 1.83754,-2.28133 2.73152,-2.28133 0.89397,0 1.91529,0.85302 2.73151,2.28133 z"
     id="path1182"
     style="stroke-width:2.21102;stroke-miterlimit:4;stroke-dasharray:none" /><path
     d="m -190.12506,121.31298 c -13.10404,-13.10725 -30.17626,-15.02702 -43.10049,-14.02266 l 0.92789,-19.043183 c 0.1683,-3.50071 -2.16902,-6.69393 -5.55742,-7.59238 -3.39128,-0.89942 -7.00237,0.71991 -8.58554,3.84946 l -8.34654,16.483493 c -5.23426,-1.739963 -10.79008,-2.679053 -16.54523,-2.679053 -5.75676,0 -11.31386,0.93941 -16.54908,2.680013 l -8.34302,-16.479333 c -1.58093,-3.12923 -5.19106,-4.75016 -8.58682,-3.8549 -3.3916,0.89941 -5.727,4.09391 -5.5539,7.5943 l 0.92853,19.050863 c -4.92038,-0.37948 -9.69549,-0.27773 -14.22647,0.31676 -1.31409,0.17246 -2.23942,1.37744 -2.06696,2.69152 0.15838,1.20818 1.18994,2.08775 2.37636,2.08775 0.10399,0 0.20925,-0.007 0.31516,-0.0208 4.38668,-0.57561 9.03285,-0.65752 13.83708,-0.24669 l 0.0937,1.92105 c -2.20102,2.15174 -4.24238,4.48939 -6.10744,6.98765 -8.71512,-3.99889 -18.22824,-3.91442 -25.35571,-2.90877 2.77951,-1.60589 5.77115,-2.9107 8.96086,-3.90034 1.26577,-0.39292 1.97352,-1.7374 1.58061,-3.00317 -0.39291,-1.26577 -1.73611,-1.9732 -3.00316,-1.58061 -7.54279,2.3402 -14.10585,6.2671 -19.50745,11.6719 -0.68888,0.6892 -0.8927,1.72683 -0.51514,2.62561 0.0989,0.23549 2.47778,5.83675 7.19723,11.4876 5.64157,6.75504 12.26478,10.70785 19.30459,11.56247 -0.74519,3.94257 -1.13715,8.02241 -1.13715,12.19919 0,4.75368 0.51386,9.47408 1.51566,14.05242 -4.94117,6.91918 -7.56678,14.72113 -7.56678,22.84881 0,12.87367 6.58066,24.9324 18.52964,33.9547 11.74805,8.87062 27.33117,13.75581 43.87929,13.75581 17.7051,0 34.63493,-5.76604 46.44793,-15.81925 1.00916,-0.85878 1.13107,-2.37348 0.27229,-3.38264 -0.8591,-1.00948 -2.37348,-1.13107 -3.38264,-0.27229 -10.9587,9.32594 -26.75427,14.67474 -43.33726,14.67474 -31.76584,0 -57.60918,-19.24988 -57.60918,-42.91075 0,-23.6612 25.84334,-42.91108 57.60918,-42.91108 31.76583,0 57.60917,19.24988 57.60917,42.91108 0,7.65029 -2.74911,15.16364 -7.95042,21.7283 -0.82294,1.03892 -0.64824,2.54818 0.39068,3.37112 1.03891,0.82327 2.54817,0.64793 3.37112,-0.39067 5.87994,-7.42152 8.98805,-15.96547 8.98805,-24.70875 0,-8.12768 -2.62561,-15.92931 -7.56646,-22.84817 1.0018,-4.57834 1.51566,-9.29874 1.51566,-14.05338 0,-4.17774 -0.39228,-8.25854 -1.13779,-12.20175 7.03949,-0.85526 13.6627,-4.80775 19.30428,-11.56247 4.71976,-5.65117 7.09931,-11.25211 7.1985,-11.4876 0.37756,-0.89878 0.17406,-1.93673 -0.51546,-2.62593 z m -11.94194,-3.18266 c -7.13068,-1.00917 -16.65659,-1.09907 -25.38291,2.90525 -1.8641,-2.49698 -3.9045,-4.83399 -6.10456,-6.98477 l 0.0937,-1.92521 c 9.28498,-0.79863 20.99047,-0.024 31.39372,6.00473 z m -40.09125,-31.458683 c 0.56697,-1.1205 1.85994,-1.69996 3.07355,-1.37807 1.21554,0.3222 2.05384,1.46766 1.99369,2.72127 l -1.07155,21.987483 c -3.72212,-2.93725 -7.7882,-5.39392 -12.12049,-7.28522 z m -61.42568,-1.37711 c 1.21681,-0.32093 2.5101,0.25917 3.07675,1.38095 l 8.12256,16.043543 c -4.33037,1.89066 -8.39421,4.34637 -12.11505,7.28234 l -1.07155,-21.987803 c -0.0624,-1.25393 0.77495,-2.39747 1.98729,-2.71903 z m -38.51128,47.151533 c -2.49315,-2.96733 -4.28685,-5.96729 -5.35745,-7.97154 5.38593,-1.48366 18.30887,-4.13743 29.47235,0.58905 -3.28313,5.22051 -5.83451,11.01854 -7.49671,17.22068 -6.01209,-0.55673 -11.59447,-3.85874 -16.61819,-9.83819 z m 26.88353,29.6912 c -2.58337,1.95081 -4.91461,4.04368 -6.98413,6.2559 -0.45914,-3.02844 -0.69496,-6.10712 -0.69496,-9.20275 0,-30.92402 23.1291,-56.08263 51.55838,-56.08263 2.70943,0 5.37056,0.23005 7.96833,0.67032 -3.34744,5.44511 -4.72424,13.47584 -3.80499,22.77042 0.8799,8.8959 3.69076,17.0255 7.62758,22.67923 -3.84723,-0.55833 -7.79044,-0.84662 -11.79124,-0.84662 -16.5478,3.2e-4 -32.13092,4.8855 -43.87897,13.75613 z m 87.75825,0 c -6.89359,-5.20514 -15.10861,-9.03573 -24.06307,-11.3145 -5.44064,-3.90514 -9.78956,-13.76221 -10.87615,-24.74651 -0.89526,-9.05044 0.62328,-16.80792 4.07631,-21.15653 22.14842,6.2895 38.54232,28.23602 38.54232,54.27069 0,3.09595 -0.23582,6.17495 -0.69496,9.20339 -2.0692,-2.21222 -4.40076,-4.30573 -6.98445,-6.25654 z m 10.26502,-19.85717 c -1.6622,-6.20118 -4.21358,-11.99825 -7.49607,-17.2178 11.16284,-4.72616 24.0861,-2.07271 29.47235,-0.58905 -2.7328,5.10596 -10.18184,16.69307 -21.97628,17.80685 z"
     id="path1184"
     style="stroke-width:2.712;stroke-miterlimit:4;stroke-dasharray:none" /></g><path
   style="fill:#fff7bd;fill-opacity:1;stroke:#000000;stroke-width:1.32314;stroke-miterlimit:4;stroke-dasharray:none;stroke-opacity:1;opacity:0.99989362"
   d="m 278.60726,56.646039 c 0.24027,-15.080081 0.67706,-17.64371 4.29574,-25.213063 5.81863,-12.171092 15.43526,-20.119422 29.09482,-24.0474372 3.20468,-0.9215545 4.94197,-1.0911447 10.88745,-1.0628063 6.23628,0.029724 7.58992,0.1902675 11.42678,1.3552246 12.96626,3.9368589 22.41708,11.9355519 28.06761,23.7550189 3.59605,7.522024 4.0401,10.129376 4.29392,25.213063 l 0.22373,13.294844 h -6.35185 -6.35185 l -0.19159,-12.80696 c -0.18519,-12.378989 -0.23603,-12.940887 -1.52128,-16.814688 -3.12518,-9.419361 -10.19519,-16.531958 -19.91848,-20.038439 -3.17696,-1.145698 -4.29003,-1.290482 -9.92093,-1.290482 -5.63091,0 -6.74397,0.144784 -9.92093,1.290482 -9.72329,3.506481 -16.7933,10.619078 -19.91848,20.038439 -1.28525,3.873801 -1.33609,4.435699 -1.52128,16.814688 l -0.1916,12.80696 h -6.3468 -6.34681 z"
   id="path1364" /><path
   style="fill:#bca91b;fill-opacity:1;stroke:#bca91b;stroke-width:0.839248;stroke-miterlimit:4;stroke-dasharray:none;stroke-opacity:1"
   d="m 365.3332,206.61861 -16.06609,-16.06832 0.84861,-1.89095 c 1.1411,-2.5427 1.55581,-5.33841 1.13432,-7.64677 -0.18121,-0.99242 -1.65926,-6.01462 -3.28456,-11.16044 l -2.95509,-9.35605 1.29123,-1.90142 c 1.72462,-2.53962 3.19279,-5.78326 4.05572,-8.96034 0.99213,-3.65281 0.98601,-10.6934 -0.0125,-14.36908 -2.84522,-10.4737 -11.37921,-18.5927 -21.77009,-20.71146 -3.09438,-0.63096 -8.8603,-0.62985 -11.92072,0.002 -9.91511,2.04802 -18.16395,9.54759 -21.26721,19.33542 l -0.66981,2.11259 -21.10222,-21.1039 c -11.60622,-11.60702 -21.10222,-21.267836 -21.10222,-21.468346 0,-0.200509 2.05402,-2.46361 4.56449,-5.029112 l 4.5645,-4.66455 60.92907,0.0013 60.92907,0.0013 3.08184,3.017208 c 4.3727,4.281001 9.73742,10.599235 9.97305,11.745639 0.15672,0.762517 11.72082,22.562051 12.32225,23.228731 0.5844,0.6478 2.3815,6.48993 3.30619,10.74794 2.50955,11.55597 2.82648,23.86585 0.90827,35.27813 -2.53839,15.1021 -8.96156,29.5098 -18.5855,41.68878 -2.3744,3.00477 -12.31148,13.23989 -12.85436,13.23989 -0.13867,0 -7.48188,-7.23074 -16.31823,-16.06831 z"
   id="path1368" /><path
   style="fill:#ffffff;fill-opacity:1;stroke:#ffffff;stroke-width:2.60841;stroke-miterlimit:4;stroke-dasharray:none;stroke-opacity:1"
   d="M 16.960329,386.48584 C 6.8901674,383.77064 -1.5396518,376.22631 -5.1653045,366.68437 -6.9504521,361.98625 -7.0167876,358.1593 -7.0167876,259.87089 V 157.93012 H 21.316666 49.65012 l -2.814724,4.56856 c -1.548097,2.51271 -3.477871,7.14816 -4.288385,10.301 -2.368382,9.21284 -1.97361,14.7279 1.95933,27.37227 0.710345,2.28375 0.681184,2.29716 -1.568602,0.72135 -3.061701,-2.1445 -6.252574,-2.02649 -8.597009,0.31794 -1.811816,1.81182 -1.923605,3.20601 -1.923605,23.99053 0,21.71302 0.03428,22.09094 2.137612,23.56417 2.945684,2.06324 7.102902,1.87476 9.404021,-0.42636 1.810638,-1.81064 1.923817,-3.20862 1.927201,-23.80462 l 0.0036,-21.88101 2.052061,3.36624 c 1.128634,1.85144 7.999505,9.42563 15.268603,16.83155 7.269135,7.40592 13.896178,14.80769 14.726797,16.44839 1.656503,3.27204 7.743525,9.03945 9.540382,9.03945 0.622796,0 14.241288,13.08304 30.263328,29.07345 l 29.13096,29.07344 v 15.52068 c 0,14.24549 0.16378,15.72888 1.99341,18.05488 2.27189,2.88823 6.98289,3.43578 10.08575,1.17226 1.55489,-1.1343 1.94737,-2.90499 2.34788,-10.59241 l 0.4809,-9.23045 33.17697,33.19477 33.17697,33.19478 -103.38857,-0.0649 C 46.014593,387.68663 20.30793,387.38845 16.960329,386.48584 Z M 43.97677,340.65463 c 1.849589,-1.84959 1.929365,-2.97297 1.683154,-23.70163 l -0.258462,-21.76001 -2.56123,-1.91143 c -2.821013,-2.1053 -6.312873,-1.78648 -8.913147,0.81379 -1.282995,1.283 -1.50996,4.77724 -1.50996,23.24654 0,18.87639 0.209452,21.96802 1.591772,23.49547 2.161683,2.38864 7.494265,2.29088 9.967873,-0.18273 z m 64.62177,-1.4965 c 6.16862,-4.33094 8.73503,-9.71194 9.2424,-19.37849 0.57191,-10.89621 -0.95377,-15.9157 -6.53358,-21.49551 -7.51685,-7.51685 -17.845365,-8.4659 -26.728284,-2.45597 -6.889483,4.66124 -8.880827,9.36592 -8.880827,20.98158 0,13.54042 3.120558,19.77367 12.022534,24.01475 6.015201,2.86576 15.500957,2.10866 20.877757,-1.66636 z"
   id="path1378" /><path
   style="fill:#ffffff;fill-opacity:1;stroke:#ffffff;stroke-width:2.60841;stroke-miterlimit:4;stroke-dasharray:none;stroke-opacity:1"
   d="m 94.315863,328.1773 c -3.445403,-1.39039 -5.152376,-4.82555 -5.152376,-10.36879 0,-10.37596 6.233885,-15.23235 12.066253,-9.39998 2.01953,2.01953 2.36079,3.25944 2.36079,8.57756 0,3.41923 -0.26886,6.9174 -0.59746,7.77371 -0.48896,1.27422 -5.273542,4.53326 -6.327849,4.31024 -0.158517,-0.0335 -1.215729,-0.43526 -2.349358,-0.89274 z"
   id="path1380" /><path
   style="fill:#ffffff;fill-opacity:1;stroke:#ffffff;stroke-width:2.60841;stroke-miterlimit:4;stroke-dasharray:none;stroke-opacity:1"
   d="m -7.0167876,134.88293 c 0,-6.33355 0.5226967,-10.01717 1.9704927,-13.88676 2.626374,-7.01961 9.4317087,-14.15276 16.7846609,-17.59317 5.688787,-2.66176 6.030576,-2.70014 24.045069,-2.70014 h 18.274252 l 0.276543,8.89667 c 0.219587,7.06436 0.0027,8.89668 -1.053186,8.89668 -2.193093,0 -4.833873,3.67808 -4.833873,6.73262 0,4.85558 2.624718,6.73262 9.414434,6.73262 3.250659,0 6.32146,-0.40388 6.824002,-0.8975 0.569202,-0.55909 2.05476,0.12754 3.939996,1.82108 l 3.026283,2.71857 -4.024492,3.94974 -4.024491,3.94974 H 28.293057 -7.0167876 Z m 38.4721096,-4.84509 c 2.47311,-2.47311 2.47311,-7.14492 0,-9.61803 -2.541107,-2.5411 -12.868867,-2.76145 -15.553561,-0.33183 -2.594559,2.34804 -2.371855,8.44964 0.378724,10.37622 3.264702,2.28669 12.727667,2.02081 15.174837,-0.42636 z"
   id="path1382" /><path
   style="fill:#ffffff;fill-opacity:1;stroke:#ffffff;stroke-width:2.60841;stroke-miterlimit:4;stroke-dasharray:none;stroke-opacity:1"
   d="m 292.83744,359.36497 c -2.84106,-1.54154 -4.15653,-4.89393 -3.27769,-8.35295 0.3024,-1.19023 3.94813,-5.53678 8.10162,-9.65899 l 7.5518,-7.49493 3.61112,3.40572 c 1.98611,1.87315 4.66306,3.66975 5.94878,3.99244 1.28572,0.3227 2.33767,0.87396 2.33767,1.22504 0,1.04047 -15.68536,16.15872 -17.97057,17.32084 -2.64029,1.34269 -3.07847,1.3123 -6.30273,-0.43717 z"
   id="path1384" /><path
   style="fill:#ffffff;fill-opacity:1;stroke:#ffffff;stroke-width:2.60841;stroke-miterlimit:4;stroke-dasharray:none;stroke-opacity:1"
   d="m 319.86974,327.67883 c -4.69144,-2.54907 -4.30433,-4.16323 2.68839,-11.20996 7.31067,-7.36712 7.9803,-7.24705 8.00312,1.43494 0.0129,4.92194 -0.32761,5.94668 -2.7967,8.41577 -3.14867,3.14868 -4.25189,3.33862 -7.89481,1.35925 z"
   id="path1386" /><path
   style="fill:#ffffff;fill-opacity:1;stroke:#ffffff;stroke-width:2.60841;stroke-miterlimit:4;stroke-dasharray:none;stroke-opacity:1"
   d="m 344.04121,311.85921 c 0,-2.36277 -0.90756,-6.11712 -2.04845,-8.47387 l -2.04845,-4.23154 4.58792,-4.65796 c 2.52335,-2.56187 5.61295,-4.91522 6.86576,-5.22966 3.11271,-0.78124 7.87151,1.86083 8.6033,4.77652 1.04438,4.16114 -0.30649,6.52252 -8.23031,14.38699 l -7.72977,7.67185 z"
   id="path1388" /><path
   style="fill:#ffffff;fill-opacity:1;stroke:#ffffff;stroke-width:2.60841;stroke-miterlimit:4;stroke-dasharray:none;stroke-opacity:1"
   d="m 321.61182,161.95069 c -9.0793,-9.0995 -12.48998,-13.18174 -13.2189,-15.82166 -2.50348,-9.06685 4.78958,-18.0148 14.68304,-18.0148 11.79282,0 18.00048,13.33961 11.00107,23.64017 -3.01479,4.43667 -3.34725,10.19433 -0.98837,17.11724 0.85298,2.50337 1.37285,4.7296 1.15527,4.94718 -0.21758,0.21758 -5.90203,-5.12308 -12.63211,-11.86813 z"
   id="path1390" /><path
   style="fill:#ffffff;fill-opacity:1;stroke:#ffffff;stroke-width:2.60841;stroke-miterlimit:4;stroke-dasharray:none;stroke-opacity:1"
   d="m 380.07478,372.44622 c 7.90293,-7.91612 14.52634,-14.23557 14.71868,-14.04322 0.72354,0.72354 -1.94533,8.87097 -4.15871,12.69553 -3.21647,5.55786 -11.13949,12.39189 -16.47366,14.20943 -9.59936,3.27083 -9.0934,2.17042 5.91369,-12.86174 z"
   id="path1392" /><path
   style="opacity:0.999894;fill:#fff7bd;fill-opacity:1;stroke:#ffffff;stroke-width:1.99255;stroke-miterlimit:4;stroke-dasharray:none;stroke-opacity:1"
   d="m 324.15768,165.58171 c -14.13825,-13.83333 -16.49478,-16.95121 -16.8601,-22.30727 -0.37134,-5.44442 1.8575,-9.84586 6.61622,-13.06548 6.59024,-4.45877 14.03354,-3.89657 19.39503,1.46492 5.36878,5.36878 5.95965,12.16192 1.75214,20.14395 -2.59105,4.91546 -2.95176,10.63852 -1.06993,16.97534 2.44289,8.22609 1.56239,7.93853 -9.83336,-3.21146 z"
   id="path1394" /></svg>
